ffmpeg started on 2025-05-05 at 19:57:40
Report written to "D:\Convert\FFMetrics\reports\ssim_report-6.txt"
Log level: 32
Command line:
ffmpeg -hide_banner -nostdin -i "G:\\\xc0\xed\xe8\xec\xe5\\\xce\xed\xe3\xee\xe8\xed\xe3\xe8\\!_35_\xcb\xe5\xf2\xee_2024\\JamClub\\\xdf \xef\xe0\xf0\xe8\xf0\xee\xe2\xe0\xeb \xe2\xf1\xb8 \xe2\xf0\xe5\xec\xff, \xf7\xf2\xee\xe1\xfb \xf1\xf2\xe0\xf2\xfc \xf1\xe8\xeb\xfc\xed\xe5\xe9\xf8\xe8\xec \xe0\xe2\xe0\xed\xf2\xfe\xf0\xe8\xf1\xf2\xee\xec\\JamClub_I_Parry_Everything_11_1080p_HEVC.mkv" -i "G:\\\xc0\xed\xe8\xec\xe5\\\xce\xed\xe3\xee\xe8\xed\xe3\xe8\\!_35_\xcb\xe5\xf2\xee_2024\\JamClub\\\xdf \xef\xe0\xf0\xe8\xf0\xee\xe2\xe0\xeb \xe2\xf1\xb8 \xe2\xf0\xe5\xec\xff, \xf7\xf2\xee\xe1\xfb \xf1\xf2\xe0\xf2\xfc \xf1\xe8\xeb\xfc\xed\xe5\xe9\xf8\xe8\xec \xe0\xe2\xe0\xed\xf2\xfe\xf0\xe8\xf1\xf2\xee\xec\\JamClub_I_Parry_Everything_11_1080p.mp4" -lavfi "[0:v]settb=AVTB,setpts=PTS-STARTPTS,format=pix_fmts=yuv420p10,fps=24000/1001,scale=1920:1080:flags=bicubic[main];[1:v]settb=AVTB,setpts=PTS-STARTPTS,format=pix_fmts=yuv420p,fps=24000/1001,scale=1920:1080:flags=bicubic[ref];[main][ref]ssim=eof_action=endall:stats_file='D\\:/Convert/FFMetrics/logs/ssim_logfile-6.txt'" -f null -
Input #0, matroska,webm, from 'G:\Аниме\Онгоинги\!_35_Лето_2024\JamClub\Я парировал всё время, чтобы стать сильнейшим авантюристом\JamClub_I_Parry_Everything_11_1080p_HEVC.mkv':
  Metadata:
    COMPATIBLE_BRANDS: isomiso2avc1mp41
    MAJOR_BRAND     : isom
    MINOR_VERSION   : 512
    ENCODER         : Lavf61.7.100
  Duration: 00:24:04.72, start: -0.001000, bitrate: 1087 kb/s
  Stream #0:0: Video: hevc (Main 10), yuv420p10le(tv, bt709, progressive), 1920x1080 [SAR 1:1 DAR 16:9], 23.98 fps, 23.98 tbr, 1k tbn (default)
      Metadata:
        HANDLER_NAME    : VideoHandler
        VENDOR_ID       : [0][0][0][0]
        ENCODER         : Lavc61.19.100 libx265
        BPS             : 888645
        DURATION        : 00:24:04.609708333
        NUMBER_OF_FRAMES: 34636
        NUMBER_OF_BYTES : 160468159
        _STATISTICS_WRITING_APP: mkvpropedit v66.0.0 ('Josie') 64-bit
        _STATISTICS_WRITING_DATE_UTC: 2025-05-05 11:52:30
        _STATISTICS_TAGS: BPS DURATION NUMBER_OF_FRAMES NUMBER_OF_BYTES
  Stream #0:1(eng): Audio: aac (LC), 48000 Hz, stereo, fltp (default)
      Metadata:
        HANDLER_NAME    : SoundHandler
        VENDOR_ID       : [0][0][0][0]
        ENCODER         : Lavc61.19.100 aac
        BPS             : 194894
        DURATION        : 00:24:04.675000000
        NUMBER_OF_FRAMES: 67720
        NUMBER_OF_BYTES : 35194955
        _STATISTICS_WRITING_APP: mkvpropedit v66.0.0 ('Josie') 64-bit
        _STATISTICS_WRITING_DATE_UTC: 2025-05-05 11:52:30
        _STATISTICS_TAGS: BPS DURATION NUMBER_OF_FRAMES NUMBER_OF_BYTES
Input #1, mov,mp4,m4a,3gp,3g2,mj2, from 'G:\Аниме\Онгоинги\!_35_Лето_2024\JamClub\Я парировал всё время, чтобы стать сильнейшим авантюристом\JamClub_I_Parry_Everything_11_1080p.mp4':
  Metadata:
    major_brand     : isom
    minor_version   : 512
    compatible_brands: isomiso2avc1mp41
    encoder         : Lavf60.16.100
  Duration: 00:24:04.70, start: 0.000000, bitrate: 3953 kb/s
  Stream #1:0[0x1](und): Video: h264 (High) (avc1 / 0x31637661), yuv420p(progressive), 1920x1080 [SAR 1:1 DAR 16:9], 3755 kb/s, 23.98 fps, 23.98 tbr, 90k tbn (default)
      Metadata:
        handler_name    : VideoHandler
        vendor_id       : [0][0][0][0]
  Stream #1:1[0x2](eng): Audio: aac (LC) (mp4a / 0x6134706D), 48000 Hz, stereo, fltp, 191 kb/s (default)
      Metadata:
        handler_name    : SoundHandler
        vendor_id       : [0][0][0][0]
Stream mapping:
  Stream #0:0 (hevc) -> settb:default
  Stream #1:0 (h264) -> settb:default
  ssim:default -> Stream #0:0 (wrapped_avframe)
  Stream #0:1 -> #0:1 (aac (native) -> pcm_s16le (native))
Output #0, null, to 'pipe:':
  Metadata:
    COMPATIBLE_BRANDS: isomiso2avc1mp41
    MAJOR_BRAND     : isom
    MINOR_VERSION   : 512
    encoder         : Lavf61.7.100
  Stream #0:0: Video: wrapped_avframe, yuv420p10le(tv, bt709, progressive), 1920x1080 [SAR 1:1 DAR 16:9], q=2-31, 200 kb/s, 23.98 fps, 23.98 tbn
      Metadata:
        encoder         : Lavc61.19.100 wrapped_avframe
  Stream #0:1(eng): Audio: pcm_s16le, 48000 Hz, stereo, s16, 1536 kb/s (default)
      Metadata:
        HANDLER_NAME    : SoundHandler
        VENDOR_ID       : [0][0][0][0]
        _STATISTICS_TAGS: BPS DURATION NUMBER_OF_FRAMES NUMBER_OF_BYTES
        BPS             : 194894
        DURATION        : 00:24:04.675000000
        NUMBER_OF_FRAMES: 67720
        NUMBER_OF_BYTES : 35194955
        _STATISTICS_WRITING_APP: mkvpropedit v66.0.0 ('Josie') 64-bit
        _STATISTICS_WRITING_DATE_UTC: 2025-05-05 11:52:30
        encoder         : Lavc61.19.100 pcm_s16le
frame=  100 fps=0.0 q=-0.0 size=N/A time=00:00:04.17 bitrate=N/A speed=8.23x    frame=  260 fps=253 q=-0.0 size=N/A time=00:00:10.84 bitrate=N/A speed=10.6x    frame=  459 fps=296 q=-0.0 size=N/A time=00:00:19.14 bitrate=N/A speed=12.4x    frame=  686 fps=333 q=-0.0 size=N/A time=00:00:28.61 bitrate=N/A speed=13.9x    frame=  901 fps=349 q=-0.0 size=N/A time=00:00:37.57 bitrate=N/A speed=14.6x    frame= 1108 fps=359 q=-0.0 size=N/A time=00:00:46.21 bitrate=N/A speed=  15x    frame= 1382 fps=383 q=-0.0 size=N/A time=00:00:57.64 bitrate=N/A speed=  16x    frame= 1642 fps=397 q=-0.0 size=N/A time=00:01:08.48 bitrate=N/A speed=16.6x    frame= 1894 fps=408 q=-0.0 size=N/A time=00:01:18.99 bitrate=N/A speed=  17x    frame= 2186 fps=424 q=-0.0 size=N/A time=00:01:31.17 bitrate=N/A speed=17.7x    frame= 2417 fps=427 q=-0.0 size=N/A time=00:01:40.80 bitrate=N/A speed=17.8x    frame= 2672 fps=432 q=-0.0 size=N/A time=00:01:51.44 bitrate=N/A speed=  18x    frame= 2924 fps=437 q=-0.0 size=N/A time=00:02:01.95 bitrate=N/A speed=18.2x    frame= 3172 fps=440 q=-0.0 size=N/A time=00:02:12.29 bitrate=N/A speed=18.3x    frame= 3421 fps=443 q=-0.0 size=N/A time=00:02:22.68 bitrate=N/A speed=18.5x    frame= 3703 fps=449 q=-0.0 size=N/A time=00:02:34.44 bitrate=N/A speed=18.7x    frame= 3976 fps=454 q=-0.0 size=N/A time=00:02:45.83 bitrate=N/A speed=18.9x    frame= 4242 fps=457 q=-0.0 size=N/A time=00:02:56.92 bitrate=N/A speed=19.1x    frame= 4506 fps=460 q=-0.0 size=N/A time=00:03:07.93 bitrate=N/A speed=19.2x    frame= 4718 fps=458 q=-0.0 size=N/A time=00:03:16.77 bitrate=N/A speed=19.1x    frame= 4973 fps=459 q=-0.0 size=N/A time=00:03:27.41 bitrate=N/A speed=19.1x    frame= 5210 fps=459 q=-0.0 size=N/A time=00:03:37.30 bitrate=N/A speed=19.2x    frame= 5438 fps=458 q=-0.0 size=N/A time=00:03:46.80 bitrate=N/A speed=19.1x    frame= 5685 fps=460 q=-0.0 size=N/A time=00:03:57.11 bitrate=N/A speed=19.2x    frame= 5963 fps=463 q=-0.0 size=N/A time=00:04:08.70 bitrate=N/A speed=19.3x    frame= 6202 fps=463 q=-0.0 size=N/A time=00:04:18.67 bitrate=N/A speed=19.3x    frame= 6438 fps=463 q=-0.0 size=N/A time=00:04:28.51 bitrate=N/A speed=19.3x    frame= 6716 fps=465 q=-0.0 size=N/A time=00:04:40.11 bitrate=N/A speed=19.4x    frame= 6936 fps=464 q=-0.0 size=N/A time=00:04:49.28 bitrate=N/A speed=19.4x    frame= 7152 fps=463 q=-0.0 size=N/A time=00:04:58.29 bitrate=N/A speed=19.3x    frame= 7399 fps=463 q=-0.0 size=N/A time=00:05:08.59 bitrate=N/A speed=19.3x    frame= 7601 fps=461 q=-0.0 size=N/A time=00:05:17.02 bitrate=N/A speed=19.2x    frame= 7783 fps=458 q=-0.0 size=N/A time=00:05:24.61 bitrate=N/A speed=19.1x    frame= 7954 fps=454 q=-0.0 size=N/A time=00:05:31.74 bitrate=N/A speed=18.9x    frame= 8165 fps=452 q=-0.0 size=N/A time=00:05:40.54 bitrate=N/A speed=18.9x    frame= 8360 fps=450 q=-0.0 size=N/A time=00:05:48.68 bitrate=N/A speed=18.8x    frame= 8532 fps=447 q=-0.0 size=N/A time=00:05:55.85 bitrate=N/A speed=18.7x    frame= 8685 fps=443 q=-0.0 size=N/A time=00:06:02.23 bitrate=N/A speed=18.5x    frame= 8838 fps=440 q=-0.0 size=N/A time=00:06:08.61 bitrate=N/A speed=18.3x    frame= 9088 fps=441 q=-0.0 size=N/A time=00:06:19.04 bitrate=N/A speed=18.4x    frame= 9332 fps=442 q=-0.0 size=N/A time=00:06:29.22 bitrate=N/A speed=18.4x    frame= 9594 fps=443 q=-0.0 size=N/A time=00:06:40.14 bitrate=N/A speed=18.5x    frame= 9820 fps=443 q=-0.0 size=N/A time=00:06:49.57 bitrate=N/A speed=18.5x    frame=10039 fps=443 q=-0.0 size=N/A time=00:06:58.70 bitrate=N/A speed=18.5x    frame=10274 fps=443 q=-0.0 size=N/A time=00:07:08.51 bitrate=N/A speed=18.5x    frame=10483 fps=442 q=-0.0 size=N/A time=00:07:17.22 bitrate=N/A speed=18.4x    frame=10759 fps=444 q=-0.0 size=N/A time=00:07:28.73 bitrate=N/A speed=18.5x    frame=11021 fps=445 q=-0.0 size=N/A time=00:07:39.66 bitrate=N/A speed=18.6x    frame=11259 fps=446 q=-0.0 size=N/A time=00:07:49.59 bitrate=N/A speed=18.6x    frame=11527 fps=447 q=-0.0 size=N/A time=00:08:00.77 bitrate=N/A speed=18.6x    frame=11745 fps=447 q=-0.0 size=N/A time=00:08:09.86 bitrate=N/A speed=18.6x    frame=11986 fps=447 q=-0.0 size=N/A time=00:08:19.91 bitrate=N/A speed=18.7x    frame=12232 fps=448 q=-0.0 size=N/A time=00:08:30.17 bitrate=N/A speed=18.7x    frame=12479 fps=448 q=-0.0 size=N/A time=00:08:40.47 bitrate=N/A speed=18.7x    frame=12745 fps=449 q=-0.0 size=N/A time=00:08:51.57 bitrate=N/A speed=18.7x    frame=13002 fps=450 q=-0.0 size=N/A time=00:09:02.29 bitrate=N/A speed=18.8x    frame=13253 fps=451 q=-0.0 size=N/A time=00:09:12.76 bitrate=N/A speed=18.8x    frame=13526 fps=452 q=-0.0 size=N/A time=00:09:24.14 bitrate=N/A speed=18.9x    frame=13824 fps=454 q=-0.0 size=N/A time=00:09:36.57 bitrate=N/A speed=  19x    frame=14067 fps=455 q=-0.0 size=N/A time=00:09:46.71 bitrate=N/A speed=  19x    frame=14352 fps=456 q=-0.0 size=N/A time=00:09:58.59 bitrate=N/A speed=  19x    frame=14647 fps=458 q=-0.0 size=N/A time=00:10:10.90 bitrate=N/A speed=19.1x    frame=14914 fps=459 q=-0.0 size=N/A time=00:10:22.03 bitrate=N/A speed=19.1x    frame=15173 fps=460 q=-0.0 size=N/A time=00:10:32.84 bitrate=N/A speed=19.2x    frame=15470 fps=461 q=-0.0 size=N/A time=00:10:45.22 bitrate=N/A speed=19.2x    frame=15740 fps=462 q=-0.0 size=N/A time=00:10:56.48 bitrate=N/A speed=19.3x    frame=15962 fps=462 q=-0.0 size=N/A time=00:11:05.74 bitrate=N/A speed=19.3x    frame=16222 fps=462 q=-0.0 size=N/A time=00:11:16.59 bitrate=N/A speed=19.3x    frame=16520 fps=464 q=-0.0 size=N/A time=00:11:29.02 bitrate=N/A speed=19.4x    frame=16805 fps=465 q=-0.0 size=N/A time=00:11:40.90 bitrate=N/A speed=19.4x    frame=17097 fps=467 q=-0.0 size=N/A time=00:11:53.08 bitrate=N/A speed=19.5x    frame=17354 fps=467 q=-0.0 size=N/A time=00:12:03.80 bitrate=N/A speed=19.5x    frame=17616 fps=468 q=-0.0 size=N/A time=00:12:14.73 bitrate=N/A speed=19.5x    frame=17883 fps=468 q=-0.0 size=N/A time=00:12:25.87 bitrate=N/A speed=19.5x    frame=18151 fps=469 q=-0.0 size=N/A time=00:12:37.04 bitrate=N/A speed=19.6x    frame=18428 fps=470 q=-0.0 size=N/A time=00:12:48.60 bitrate=N/A speed=19.6x    frame=18699 fps=471 q=-0.0 size=N/A time=00:12:59.90 bitrate=N/A speed=19.6x    frame=18932 fps=471 q=-0.0 size=N/A time=00:13:09.62 bitrate=N/A speed=19.6x    frame=19207 fps=471 q=-0.0 size=N/A time=00:13:21.09 bitrate=N/A speed=19.7x    frame=19504 fps=473 q=-0.0 size=N/A time=00:13:33.47 bitrate=N/A speed=19.7x    frame=19789 fps=474 q=-0.0 size=N/A time=00:13:45.36 bitrate=N/A speed=19.8x    frame=20047 fps=474 q=-0.0 size=N/A time=00:13:56.12 bitrate=N/A speed=19.8x    frame=20304 fps=474 q=-0.0 size=N/A time=00:14:06.84 bitrate=N/A speed=19.8x    frame=20577 fps=475 q=-0.0 size=N/A time=00:14:18.23 bitrate=N/A speed=19.8x    frame=20861 fps=476 q=-0.0 size=N/A time=00:14:30.07 bitrate=N/A speed=19.8x    frame=21139 fps=477 q=-0.0 size=N/A time=00:14:41.67 bitrate=N/A speed=19.9x    frame=21439 fps=478 q=-0.0 size=N/A time=00:14:54.18 bitrate=N/A speed=19.9x    frame=21711 fps=478 q=-0.0 size=N/A time=00:15:05.52 bitrate=N/A speed=  20x    frame=21999 fps=479 q=-0.0 size=N/A time=00:15:17.54 bitrate=N/A speed=  20x    frame=22278 fps=480 q=-0.0 size=N/A time=00:15:29.17 bitrate=N/A speed=  20x    frame=22571 fps=481 q=-0.0 size=N/A time=00:15:41.39 bitrate=N/A speed=20.1x    frame=22859 fps=482 q=-0.0 size=N/A time=00:15:53.41 bitrate=N/A speed=20.1x    frame=23156 fps=483 q=-0.0 size=N/A time=00:16:05.79 bitrate=N/A speed=20.1x    frame=23454 fps=484 q=-0.0 size=N/A time=00:16:18.22 bitrate=N/A speed=20.2x    frame=23727 fps=484 q=-0.0 size=N/A time=00:16:29.61 bitrate=N/A speed=20.2x    frame=24013 fps=485 q=-0.0 size=N/A time=00:16:41.54 bitrate=N/A speed=20.2x    frame=24293 fps=486 q=-0.0 size=N/A time=00:16:53.22 bitrate=N/A speed=20.3x    frame=24551 fps=486 q=-0.0 size=N/A time=00:17:03.98 bitrate=N/A speed=20.3x    frame=24790 fps=486 q=-0.0 size=N/A time=00:17:13.94 bitrate=N/A speed=20.3x    frame=25054 fps=486 q=-0.0 size=N/A time=00:17:24.96 bitrate=N/A speed=20.3x    frame=25287 fps=485 q=-0.0 size=N/A time=00:17:34.67 bitrate=N/A speed=20.2x    frame=25573 fps=486 q=-0.0 size=N/A time=00:17:46.60 bitrate=N/A speed=20.3x    frame=25834 fps=486 q=-0.0 size=N/A time=00:17:57.49 bitrate=N/A speed=20.3x    frame=26118 fps=487 q=-0.0 size=N/A time=00:18:09.33 bitrate=N/A speed=20.3x    frame=26406 fps=488 q=-0.0 size=N/A time=00:18:21.35 bitrate=N/A speed=20.3x    frame=26689 fps=488 q=-0.0 size=N/A time=00:18:33.15 bitrate=N/A speed=20.4x    frame=26977 fps=489 q=-0.0 size=N/A time=00:18:45.16 bitrate=N/A speed=20.4x    frame=27259 fps=489 q=-0.0 size=N/A time=00:18:56.92 bitrate=N/A speed=20.4x    frame=27529 fps=490 q=-0.0 size=N/A time=00:19:08.18 bitrate=N/A speed=20.4x    frame=27818 fps=490 q=-0.0 size=N/A time=00:19:20.24 bitrate=N/A speed=20.5x    frame=28103 fps=491 q=-0.0 size=N/A time=00:19:32.12 bitrate=N/A speed=20.5x    frame=28378 fps=491 q=-0.0 size=N/A time=00:19:43.59 bitrate=N/A speed=20.5x    frame=28629 fps=491 q=-0.0 size=N/A time=00:19:54.06 bitrate=N/A speed=20.5x    frame=28920 fps=492 q=-0.0 size=N/A time=00:20:06.20 bitrate=N/A speed=20.5x    frame=29188 fps=492 q=-0.0 size=N/A time=00:20:17.38 bitrate=N/A speed=20.5x    frame=29425 fps=492 q=-0.0 size=N/A time=00:20:27.26 bitrate=N/A speed=20.5x    frame=29720 fps=493 q=-0.0 size=N/A time=00:20:39.57 bitrate=N/A speed=20.5x    frame=30002 fps=493 q=-0.0 size=N/A time=00:20:51.33 bitrate=N/A speed=20.6x    frame=30266 fps=493 q=-0.0 size=N/A time=00:21:02.34 bitrate=N/A speed=20.6x    frame=30546 fps=493 q=-0.0 size=N/A time=00:21:14.02 bitrate=N/A speed=20.6x    frame=30811 fps=494 q=-0.0 size=N/A time=00:21:25.07 bitrate=N/A speed=20.6x    frame=31049 fps=493 q=-0.0 size=N/A time=00:21:35.00 bitrate=N/A speed=20.6x    frame=31319 fps=494 q=-0.0 size=N/A time=00:21:46.26 bitrate=N/A speed=20.6x    frame=31579 fps=494 q=-0.0 size=N/A time=00:21:57.10 bitrate=N/A speed=20.6x    frame=31846 fps=494 q=-0.0 size=N/A time=00:22:08.24 bitrate=N/A speed=20.6x    frame=32086 fps=494 q=-0.0 size=N/A time=00:22:18.25 bitrate=N/A speed=20.6x    frame=32337 fps=494 q=-0.0 size=N/A time=00:22:28.72 bitrate=N/A speed=20.6x    frame=32575 fps=493 q=-0.0 size=N/A time=00:22:38.69 bitrate=N/A speed=20.6x    frame=32807 fps=493 q=-0.0 size=N/A time=00:22:48.32 bitrate=N/A speed=20.6x    frame=32949 fps=491 q=-0.0 size=N/A time=00:22:54.24 bitrate=N/A speed=20.5x    frame=33134 fps=490 q=-0.0 size=N/A time=00:23:01.96 bitrate=N/A speed=20.5x    frame=33360 fps=490 q=-0.0 size=N/A time=00:23:11.39 bitrate=N/A speed=20.4x    frame=33560 fps=489 q=-0.0 size=N/A time=00:23:19.73 bitrate=N/A speed=20.4x    frame=33729 fps=488 q=-0.0 size=N/A time=00:23:26.78 bitrate=N/A speed=20.4x    frame=33880 fps=487 q=-0.0 size=N/A time=00:23:33.07 bitrate=N/A speed=20.3x    frame=34075 fps=486 q=-0.0 size=N/A time=00:23:41.21 bitrate=N/A speed=20.3x    frame=34260 fps=485 q=-0.0 size=N/A time=00:23:48.92 bitrate=N/A speed=20.2x    frame=34471 fps=484 q=-0.0 size=N/A time=00:23:57.72 bitrate=N/A speed=20.2x    [Parsed_ssim_10 @ 000002abd1ea94c0] SSIM Y:0.994268 (22.416814) U:0.994895 (22.919818) V:0.995156 (23.148007) All:0.994520 (22.612476)
[out#0/null @ 000002abcb273cc0] video:14883KiB audio:270880KiB subtitle:0KiB other streams:0KiB global headers:0KiB muxing overhead: unknown
frame=34636 fps=484 q=-0.0 Lsize=N/A time=00:24:04.60 bitrate=N/A speed=20.2x    
